<?xml version="1.0" encoding="UTF-8"?>
<svg width="91px" height="91px" viewBox="0 0 91 91" version="1.1" xmlns="http://www.w3.org/2000/svg" xmlns:xlink="http://www.w3.org/1999/xlink">
    <!-- Generator: Sketch 61 (89581) - https://sketch.com -->
    <title>Detect-icon</title>
    <desc>Created with Sketch.</desc>
    <g id="Page-1" stroke="none" stroke-width="1" fill="none" fill-rule="evenodd">
        <g id="Track_2b" transform="translate(-420.000000, -1340.000000)">
            <g id="Group-10" transform="translate(315.000000, 1340.000000)">
                <g id="Detect-icon" transform="translate(105.000000, 0.000000)">
                    <rect id="Rectangle" fill="#F0F0F0" x="0" y="0" width="91" height="91" rx="19"></rect>
                    <g id="search" transform="translate(26.000000, 26.000000)" fill="#000000" fill-rule="nonzero" stroke="#F5F5F5" stroke-width="0.699999988">
                        <path d="M38.6021993,36.3208994 L29.1115995,26.4501995 C31.5517995,23.5493996 32.8887994,19.8995997 32.8887994,16.0999997 C32.8887994,7.22259988 25.6661996,0 16.7887997,0 C7.91139987,0 0.688799988,7.22259988 0.688799988,16.0999997 C0.688799988,24.9773996 7.91139987,32.1999995 16.7887997,32.1999995 C20.1214997,32.1999995 23.2973996,31.1947995 26.0126996,29.2865995 L35.5753994,39.2321993 C35.9750994,39.6472993 36.5126994,39.8761993 37.0887994,39.8761993 C37.6340994,39.8761993 38.1513994,39.6682993 38.5440993,39.2902993 C39.3784993,38.4873993 39.4050993,37.1559994 38.6021993,36.3208994 Z M16.7887997,4.19999993 C23.3505996,4.19999993 28.6887995,9.53819984 28.6887995,16.0999997 C28.6887995,22.6617996 23.3505996,27.9999995 16.7887997,27.9999995 C10.2269998,27.9999995 4.88879992,22.6617996 4.88879992,16.0999997 C4.88879992,9.53819984 10.2269998,4.19999993 16.7887997,4.19999993 Z" id="Shape"></path>
                    </g>
                </g>
            </g>
        </g>
    </g>
</svg>