<?xml version="1.0" encoding="UTF-8"?>
<svg width="97px" height="94px" viewBox="0 0 97 94" version="1.1" xmlns="http://www.w3.org/2000/svg" xmlns:xlink="http://www.w3.org/1999/xlink">
    <!-- Generator: Sketch 61 (89581) - https://sketch.com -->
    <title>no1</title>
    <desc>Created with Sketch.</desc>
    <g id="Page-1" stroke="none" stroke-width="1" fill="none" fill-rule="evenodd">
        <g id="Track_2b" transform="translate(-1082.000000, -1978.000000)" fill="#E02020">
            <g id="no1" transform="translate(1082.000000, 1978.000000)">
                <path d="M48.5,94 C75.2858104,94 97,66.5201854 97,39.734375 C97,12.9485646 75.2858104,0 48.5,0 C21.7141896,0 0,21.7141896 0,48.5 C0,75.2858104 21.7141896,94 48.5,94 Z" id="Oval-Copy-4" opacity="0.0789620536"></path>
                <path d="M50.13,58 L50.13,28.6 L39.336,28.6 L39.336,32.254 L45.972,32.254 L45.972,58 L50.13,58 Z M57.101517,58.252 C58.613517,58.252 59.873517,57.034 59.873517,55.354 C59.873517,53.674 58.613517,52.498 57.101517,52.498 C55.547517,52.498 54.245517,53.674 54.245517,55.354 C54.245517,57.034 55.547517,58.252 57.101517,58.252 Z" id="1." fill-rule="nonzero"></path>
            </g>
        </g>
    </g>
</svg>