<?xml version="1.0" encoding="UTF-8"?>
<svg width="107px" height="97px" viewBox="0 0 107 97" version="1.1" xmlns="http://www.w3.org/2000/svg" xmlns:xlink="http://www.w3.org/1999/xlink">
    <!-- Generator: Sketch 61 (89581) - https://sketch.com -->
    <title>no2</title>
    <desc>Created with Sketch.</desc>
    <g id="Page-1" stroke="none" stroke-width="1" fill="none" fill-rule="evenodd">
        <g id="Track_2b" transform="translate(-1077.000000, -2212.000000)" fill="#E02020">
            <g id="no2" transform="translate(1077.000000, 2212.000000)">
                <path d="M53.5,97 C80.2858104,97 107,72.2858104 107,45.5 C107,18.7141896 80.2858104,0 53.5,0 C26.7141896,0 0,6.97200213 0,33.7578125 C0,60.5436229 26.7141896,97 53.5,97 Z" id="Oval-Copy-3" opacity="0.0789620536"></path>
                <path d="M62.68,62 L62.68,58.346 L47.602,58.346 L56.59,49.694 C60.58,45.872 61.42,43.31 61.42,40.454 C61.42,35.414 57.472,32.264 51.34,32.264 C46.762,32.264 42.856,33.902 40.588,36.716 L43.444,39.194 C45.25,37.01 47.812,36.002 50.962,36.002 C55.078,36.002 57.22,37.85 57.22,40.874 C57.22,42.722 56.632,44.57 53.524,47.594 L41.554,59.144 L41.554,62 L62.68,62 Z M67.089517,62.252 C68.601517,62.252 69.861517,61.034 69.861517,59.354 C69.861517,57.674 68.601517,56.498 67.089517,56.498 C65.535517,56.498 64.233517,57.674 64.233517,59.354 C64.233517,61.034 65.535517,62.252 67.089517,62.252 Z" id="2." fill-rule="nonzero"></path>
            </g>
        </g>
    </g>
</svg>