<?xml version="1.0" encoding="UTF-8"?>
<svg width="97px" height="104px" viewBox="0 0 97 104" version="1.1" xmlns="http://www.w3.org/2000/svg" xmlns:xlink="http://www.w3.org/1999/xlink">
    <!-- Generator: Sketch 61 (89581) - https://sketch.com -->
    <title>no3</title>
    <desc>Created with Sketch.</desc>
    <g id="Page-1" stroke="none" stroke-width="1" fill="none" fill-rule="evenodd">
        <g id="Track_2b" transform="translate(-1082.000000, -2435.000000)" fill="#E02020">
            <g id="no3" transform="translate(1082.000000, 2435.000000)">
                <path d="M48.5,103.457031 C75.2858104,103.457031 97,75.2858104 97,48.5 C97,21.7141896 63.2858104,-1.0658141e-13 36.5,-1.0658141e-13 C9.71418963,-1.0658141e-13 0,21.7141896 0,48.5 C0,75.2858104 21.7141896,103.457031 48.5,103.457031 Z" id="Oval-Copy-2" opacity="0.0789620536"></path>
                <path d="M45.004,62.336 C52.48,62.336 56.134,58.304 56.134,53.348 C56.134,48.812 53.152,45.494 47.272,44.948 L54.958,35.456 L54.958,32.6 L35.554,32.6 L35.554,36.254 L49.708,36.254 L42.316,45.326 L42.316,48.266 L44.668,48.266 C49.708,48.266 51.934,50.282 51.934,53.39 C51.934,56.582 49.414,58.598 45.004,58.598 C41.392,58.598 38.116,57.296 36.142,55.448 L34.21,58.766 C36.688,60.992 40.804,62.336 45.004,62.336 Z M60.585517,62.252 C62.097517,62.252 63.357517,61.034 63.357517,59.354 C63.357517,57.674 62.097517,56.498 60.585517,56.498 C59.031517,56.498 57.729517,57.674 57.729517,59.354 C57.729517,61.034 59.031517,62.252 60.585517,62.252 Z" id="3." fill-rule="nonzero"></path>
            </g>
        </g>
    </g>
</svg>