<svg xmlns="http://www.w3.org/2000/svg" xmlns:xlink="http://www.w3.org/1999/xlink" width="91" height="91" version="1.1" viewBox="0 0 91 91"><title>Noise-icon</title><desc>Created with Sketch.</desc><g id="Page-1" fill="none" fill-rule="evenodd" stroke="none" stroke-width="1"><g id="Track_2b" transform="translate(-915.000000, -1340.000000)"><g id="Group-12" transform="translate(735.000000, 1265.000000)"><g id="Group-9" transform="translate(99.000000, 75.000000)"><g id="Noise-icon" transform="translate(81.000000, 0.000000)"><rect id="Rectangle-Copy-5" width="91" height="91" x="0" y="0" fill="#F0F0F0" rx="19"/><g id="noun_Ear_1494887" stroke="#080808" transform="translate(21.000000, 22.000000)"><g id="Group-5"><path id="Shape" fill="#080808" fill-rule="nonzero" stroke-width=".7" d="M14.3837824,46.0199973 C12.6437825,46.0199973 10.6037826,45.9599973 8.80378272,44.8799973 C6.64378285,43.5599974 5.56378291,40.9799976 5.56378291,37.1999978 C5.56378291,36.5999978 6.04378289,36.0599979 6.70378285,36.0599979 C7.30378281,36.0599979 7.84378278,36.5399978 7.84378278,37.1999978 C7.84378278,40.1999976 8.56378274,42.0599975 10.0037826,43.0199974 C11.2637826,43.7999974 13.0037825,43.7999974 14.3837824,43.7999974 C18.4037821,43.7999974 21.343782,39.4199977 21.583782,37.0799978 C21.8837819,34.199998 22.3037819,30.3599982 24.7637818,27.7199983 C29.0237815,23.0999986 29.6237815,17.8199989 29.5637815,15.1199991 C29.5637815,14.4599991 29.4437815,2.27999986 17.4437822,2.27999986 C11.3837826,2.27999986 6.64378285,4.55999973 4.123783,8.63999949 C1.96378313,12.1799993 1.60378315,16.859999 3.34378305,20.2799988 C3.64378303,20.8199988 3.40378304,21.4799987 2.86378308,21.7799987 C2.32378311,22.0799987 1.66378315,21.8399987 1.36378316,21.2999987 C-0.73621671,17.099999 -0.376216732,11.6999993 2.20378311,7.43999956 C5.14378294,2.63999984 10.6037826,-3.65929509e-13 17.4437822,-3.65929509e-13 C28.7837815,-3.65929509e-13 31.7837814,9.77999942 31.7837814,14.9399991 C31.8437813,18.1199989 31.1837814,24.0599986 26.3837817,29.2199983 C24.4637818,31.3199981 24.1037818,34.6799979 23.8037818,37.1999978 C23.4437818,40.7999976 19.5437821,46.0199973 14.5037824,46.0199973 C14.5037824,46.0199973 14.4437824,46.0199973 14.3837824,46.0199973 Z M24.4037818,23.0399986 C27.5837816,16.139999 25.2437817,12.1199993 23.5037818,10.3199994 C20.743782,7.37999956 16.0037823,6.41999962 12.0437825,8.03999952 C8.08378276,9.59999943 5.8037829,13.2599992 5.8037829,18.0599989 C5.8037829,18.6599989 6.28378287,19.1999989 6.94378283,19.1999989 C7.5437828,19.1999989 8.08378276,18.7199989 8.08378276,18.0599989 C8.08378276,12.8399992 11.0837826,10.8599994 12.8837825,10.1399994 C15.9437823,8.93999947 19.7237821,9.65999942 21.8837819,11.8799993 C24.1637818,14.2799991 24.2837818,17.8799989 22.3637819,22.1399987 C22.1237819,22.6799986 22.3637819,23.3399986 22.9037819,23.6399986 C23.0837819,23.6999986 23.2037819,23.7599986 23.3837819,23.7599986 C23.8037829,23.6399986 24.2237818,23.3999986 24.4037818,23.0399986 Z"/><g id="Group-6" stroke-linecap="round" stroke-linejoin="round" stroke-width="3.3" transform="translate(41.250000, 29.000000) rotate(14.000000) translate(-41.250000, -29.000000) translate(35.750000, 18.000000)"><line id="Line" x1="1.75" x2="6.75" y1="3.5" y2=".5"/><line id="Line-Copy-2" x1=".5" x2="4.75" y1="17.25" y2="21.5"/><line id="Line-Copy" x1=".5" x2="10.75" y1="10.25" y2="10.5"/></g></g></g></g></g></g></g></g></svg>