<svg xmlns="http://www.w3.org/2000/svg" xmlns:xlink="http://www.w3.org/1999/xlink" width="91" height="91" version="1.1" viewBox="0 0 91 91"><title>Save-icon</title><desc>Created with Sketch.</desc><g id="Page-1" fill="none" fill-rule="evenodd" stroke="none" stroke-width="1"><g id="Track_2b" transform="translate(-1403.000000, -1338.000000)"><g id="Group-11" transform="translate(1331.000000, 1338.000000)"><g id="Group-7" transform="translate(72.000000, 0.000000)"><g id="Save-icon"><rect id="Rectangle-Copy-6" width="91" height="91" x="0" y="0" fill="#F0F0F0" rx="19"/><polygon id="Rectangle" stroke="#080808" stroke-linejoin="round" stroke-width="3" points="25.841 36.109 46.17 22.339 66.159 36.109 66.159 65.339 25.841 65.339"/><path id="£" fill="#080808" fill-rule="nonzero" d="M51.224,55 C51.944,55 52.52,54.448 52.52,53.728 C52.52,53.008 51.944,52.432 51.224,52.432 L44.6,52.432 L44.6,48.328 L49.448,48.328 C50.12,48.328 50.696,47.776 50.696,47.08 C50.696,46.408 50.12,45.832 49.448,45.832 L44.6,45.832 L44.6,43.696 C44.6,42.688 44.888,41.896 45.392,41.368 C45.848,40.936 46.4,40.696 47.168,40.696 C48.272,40.696 48.992,41.152 49.736,41.944 C49.928,42.16 50.264,42.4 50.792,42.4 C51.608,42.4 52.256,41.776 52.256,40.96 C52.256,40.504 52.064,40.168 51.8,39.904 C50.744,38.776 49.328,37.96 47.12,37.96 C45.392,37.96 44.024,38.488 43.088,39.448 C42.128,40.408 41.6,41.872 41.6,43.624 L41.6,45.832 L40.832,45.832 C40.136,45.832 39.584,46.408 39.584,47.08 C39.584,47.776 40.136,48.328 40.832,48.328 L41.6,48.328 L41.6,52.552 L40.376,52.912 C39.848,53.08 39.584,53.488 39.584,53.968 C39.584,54.544 40.04,55 40.712,55 L51.224,55 Z"/></g></g></g></g></g></svg>