<?xml version="1.0" encoding="UTF-8"?>
<svg width="209px" height="121px" viewBox="0 0 209 121" version="1.1" xmlns="http://www.w3.org/2000/svg" xmlns:xlink="http://www.w3.org/1999/xlink">
    <!-- Generator: Sketch 61 (89581) - https://sketch.com -->
    <title>Track-logo</title>
    <desc>Created with Sketch.</desc>
    <g id="Page-1" stroke="none" stroke-width="1" fill="none" fill-rule="evenodd">
        <g id="Track_2b" transform="translate(-240.000000, 0.000000)">
            <g id="Track-logo" transform="translate(240.000000, -41.000000)">
                <rect id="Rectangle" fill="#FFFFFF" x="0" y="0" width="209" height="162" rx="8"></rect>
                <g id="track." transform="translate(45.320000, 100.320000)" fill-rule="nonzero">
                    <path d="M11.36,30 C12.3466667,30 13.2866667,29.8866667 14.18,29.66 C15.0733333,29.4333333 15.8266667,29.0933333 16.44,28.64 L16.44,28.64 L14.76,24.24 C14.0666667,24.7733333 13.2266667,25.04 12.24,25.04 C11.3866667,25.04 10.7266667,24.7933333 10.26,24.3 C9.79333333,23.8066667 9.56,23.1066667 9.56,22.2 L9.56,22.2 L9.56,13.44 L14.92,13.44 L14.92,8.64 L9.56,8.64 L9.56,3.4 L3.32,3.4 L3.32,8.64 L2.84217094e-14,8.64 L2.84217094e-14,13.44 L3.32,13.44 L3.32,22.28 C3.32,24.8133333 4.02,26.7333333 5.42,28.04 C6.82,29.3466667 8.8,30 11.36,30 Z M26.2,29.68 L26.2,19.52 C26.2,17.52 26.7066667,16.02 27.72,15.02 C28.7333333,14.02 30.1333333,13.52 31.92,13.52 C32.16,13.52 32.6266667,13.5466667 33.32,13.6 L33.32,13.6 L33.32,7.84 C31.6666667,7.84 30.2066667,8.10666667 28.94,8.64 C27.6733333,9.17333333 26.6666667,9.96 25.92,11 L25.92,11 L25.92,8.16 L19.96,8.16 L19.96,29.68 L26.2,29.68 Z M43.56,30 C46.76,30 48.9466667,29 50.12,27 L50.12,27 L50.12,29.68 L55.96,29.68 L55.96,17.4 C55.96,14.2 55.0666667,11.8066667 53.28,10.22 C51.4933333,8.63333333 48.9333333,7.84 45.6,7.84 C43.8666667,7.84 42.18,8.06666667 40.54,8.52 C38.9,8.97333333 37.4933333,9.61333333 36.32,10.44 L36.32,10.44 L38.56,14.8 C39.3333333,14.1866667 40.2733333,13.7 41.38,13.34 C42.4866667,12.98 43.6133333,12.8 44.76,12.8 C46.4133333,12.8 47.6533333,13.1666667 48.48,13.9 C49.3066667,14.6333333 49.72,15.68 49.72,17.04 L49.72,17.04 L44.76,17.04 C41.6133333,17.04 39.2866667,17.6133333 37.78,18.76 C36.2733333,19.9066667 35.52,21.48 35.52,23.48 C35.52,24.7333333 35.84,25.8533333 36.48,26.84 C37.12,27.8266667 38.0466667,28.6 39.26,29.16 C40.4733333,29.72 41.9066667,30 43.56,30 Z M45.12,25.8 C44.0266667,25.8 43.1666667,25.5666667 42.54,25.1 C41.9133333,24.6333333 41.6,24 41.6,23.2 C41.6,21.52 42.88,20.68 45.44,20.68 L45.44,20.68 L49.72,20.68 L49.72,22.88 C49.3733333,23.84 48.7866667,24.5666667 47.96,25.06 C47.1333333,25.5533333 46.1866667,25.8 45.12,25.8 Z M72.24,30 C74.5066667,30 76.4866667,29.52 78.18,28.56 C79.8733333,27.6 81.1066667,26.2666667 81.88,24.56 L81.88,24.56 L77.04,21.92 C75.9466667,23.8933333 74.3333333,24.88 72.2,24.88 C70.5733333,24.88 69.2266667,24.3466667 68.16,23.28 C67.0933333,22.2133333 66.56,20.76 66.56,18.92 C66.56,17.08 67.0933333,15.6266667 68.16,14.56 C69.2266667,13.4933333 70.5733333,12.96 72.2,12.96 C74.3066667,12.96 75.92,13.9466667 77.04,15.92 L77.04,15.92 L81.88,13.32 C81.1066667,11.56 79.8733333,10.2066667 78.18,9.26 C76.4866667,8.31333333 74.5066667,7.84 72.24,7.84 C69.9466667,7.84 67.8866667,8.31333333 66.06,9.26 C64.2333333,10.2066667 62.8066667,11.52 61.78,13.2 C60.7533333,14.88 60.24,16.7866667 60.24,18.92 C60.24,21.0533333 60.7533333,22.96 61.78,24.64 C62.8066667,26.32 64.2333333,27.6333333 66.06,28.58 C67.8866667,29.5266667 69.9466667,30 72.24,30 Z M91.56,29.68 L91.56,24.2 L94.56,21.24 L101.36,29.68 L108.92,29.68 L99.16,17.28 L108.12,8.16 L100.68,8.16 L91.56,16.8 L91.56,0 L85.32,0 L85.32,29.68 L91.56,29.68 Z" id="track" fill="#080808"></path>
                    <path d="M114.48,30 C115.573333,30 116.493333,29.6266667 117.24,28.88 C117.986667,28.1333333 118.36,27.2 118.36,26.08 C118.36,24.9333333 117.986667,24.0066667 117.24,23.3 C116.493333,22.5933333 115.573333,22.24 114.48,22.24 C113.386667,22.24 112.466667,22.5933333 111.72,23.3 C110.973333,24.0066667 110.6,24.9333333 110.6,26.08 C110.6,27.2 110.973333,28.1333333 111.72,28.88 C112.466667,29.6266667 113.386667,30 114.48,30 Z" id="." fill="#E02727"></path>
                </g>
            </g>
        </g>
    </g>
</svg>